<svg width="32" height="32" viewBox="0 0 32 32" fill="none" xmlns="http://www.w3.org/2000/svg">
<path fill-rule="evenodd" clip-rule="evenodd" d="M16 31C7.71573 31 1 24.2843 1 16C1 7.71573 7.71573 1 16 1C24.2843 1 31 7.71573 31 16C31 24.2843 24.2843 31 16 31ZM16 29.2353C23.3097 29.2353 29.2353 23.3097 29.2353 16C29.2353 8.69035 23.3097 2.76471 16 2.76471C8.69035 2.76471 2.76471 8.69035 2.76471 16C2.76471 23.3097 8.69035 29.2353 16 29.2353ZM15.9046 16.6123L22.4354 10.0819C22.7799 9.73738 23.3386 9.73739 23.6832 10.082C24.0278 10.4266 24.0277 10.9852 23.6832 11.3298L16.0954 18.9171L9.31067 14.0709C8.91413 13.7877 8.82229 13.2366 9.10553 12.8401C9.38877 12.4435 9.93985 12.3517 10.3364 12.6349L15.9046 16.6123ZM25.9135 15.1695H27.6782V16.8305H25.9135V15.1695ZM4.3218 15.1695H6.08651V16.8305H4.3218V15.1695ZM15.1176 4.3737H16.8824V6.0346H15.1176V4.3737ZM15.1176 25.9654H16.8824V27.6263H15.1176V25.9654Z" fill="#6c6c6c"/>
</svg>
